<?xml version="1.0" encoding="UTF-8"?>
<svg id="Layer_2" data-name="Layer 2" xmlns="http://www.w3.org/2000/svg" viewBox="0 0 119.27 145.94">
  <g id="design">
    <g>
      <path d="M94.1,0H25.16C11.27,0,0,11.27,0,25.16v95.61c0,13.9,11.27,25.16,25.16,25.16h68.94c13.9,0,25.16-11.27,25.16-25.16V25.16c0-13.9-11.27-25.16-25.16-25.16ZM115.49,120.78c0,11.81-9.58,21.39-21.39,21.39H25.16c-11.81,0-21.39-9.58-21.39-21.39V25.16C3.77,13.35,13.35,3.77,25.16,3.77h68.94c11.81,0,21.39,9.58,21.39,21.39v95.61Z"/>
      <path d="M106.01,44.2c-3.83-2.21-9.34-.25-13.3,3.21-3.8,3.32-6.69,7.73-7.35,12.66-.51,3.78.17,7.92.51,9.65h0s.4,1.82.4,1.82l-6.2,3.21-9.68-44.13c-.52-2.36-1.73-7.97,1.7-13.26,2.63-4.05,8.79-6.87,14.68-3.93,7.65,3.82,6.48,14.56,1.88,19.16-6.49,6.5-14.08,3.47-14.08,3.47l.02,1.36c13.28,7.29,26.68-1.75,22.58-15.16-4.16-13.61-19.95-15.56-28.65-6.68-7.33,7.49-5.54,16.39-5.54,16.39l4.27,19.46c1.06,4.82-2.58,9.42-7.52,9.46-.03,0-.07,0-.1,0s-.07,0-.1,0c-4.94-.04-8.58-4.64-7.52-9.46l4.27-19.46s1.79-8.9-5.54-16.39c-8.69-8.88-24.49-6.93-28.65,6.68-4.1,13.42,9.3,22.45,22.58,15.16l.02-1.36s-7.58,3.03-14.08-3.47c-4.6-4.6-5.77-15.34,1.88-19.16,5.89-2.94,12.05-.12,14.68,3.93,3.43,5.29,2.22,10.9,1.7,13.26l-9.68,44.13-6.2-3.21.4-1.81h0c.34-1.73,1.02-5.88.51-9.66-.66-4.93-3.55-9.34-7.35-12.66-3.96-3.46-9.46-5.42-13.3-3.21-3.88,2.24-3.61,7.76-2.36,11.37,3.04,8.73,11.9,12.99,12.01,13.05l2.72,1.41-5.56,25.35s-6,22.49,7.01,35.1c0,0,7.46,7.81,17.96,4.89,8.06-2.24,11.44-7.56,11.44-7.56v-16.44h-1.26c-1.52,16.34-15.24,26.41-25.32,18.68-8.7-6.67-3.88-26.72-3.88-26.72l6.52-29.72,6.2,3.21-.75,3.44s-1.83,8.11,2.36,13.53c4.06,5.25,9.79,6.09,13.28,3.89,3.2-2.01,4.77-8.13-1.25-14.18-1.96-1.97-4.27-3.66-6.32-4.98l4.18-19.03c2.62,2.08,5.9,3.27,9.39,3.27s6.78-1.2,9.39-3.28l4.18,19.04c-2.05,1.32-4.36,3.01-6.32,4.98-6.02,6.05-4.45,12.17-1.25,14.18,3.49,2.19,9.22,1.35,13.28-3.89,4.2-5.42,2.36-13.53,2.36-13.53l-.75-3.44,6.2-3.21,6.52,29.72s4.82,20.05-3.88,26.72c-10.08,7.73-23.8-2.34-25.32-18.68h-1.26v16.44s3.38,5.32,11.44,7.56c10.5,2.92,17.96-4.89,17.96-4.89,13.01-12.61,7.01-35.1,7.01-35.1l-5.56-25.35,2.72-1.41c.11-.05,8.98-4.31,12.01-13.05,1.26-3.61,1.52-9.14-2.36-11.37ZM26.79,64.75h0s-.17.79-.17.79c0,0,0,0,0,0l-.53,2.41-.19-.1h0l-.41-.21s-6.22-3.61-8.12-11.85c-2.15-9.32,3.31-12.85,7.99-5.82,2.9,4.35,2.38,10.31,1.44,14.78ZM51.35,88.67c3.27,5.72.25,7.67.25,7.67-1.54,1.13-4.75.6-6.17-3.3-1.68-4.62-.04-11.43-.04-11.43v-.04c2.11,1.88,4.36,4.3,5.96,7.1ZM73.84,93.04c-1.42,3.9-4.63,4.42-6.17,3.3,0,0-3.02-1.95.25-7.67,1.6-2.8,3.85-5.22,5.95-7.1v.04s1.64,6.81-.04,11.43ZM101.9,55.8c-1.91,8.24-8.12,11.85-8.12,11.85l-.41.21h0l-.19.1-.53-2.41h0s-.17-.79-.17-.79h0c-.94-4.46-1.46-10.43,1.44-14.78,4.68-7.02,10.14-3.5,7.99,5.82Z"/>
    </g>
  </g>
</svg>